<mxfile host="app.diagrams.net" agent="Mozilla/5.0 (Macintosh; Intel Mac OS X 10_15_7) AppleWebKit/537.36 (KHTML, like Gecko) Chrome/111.0.0.0 Safari/537.36" version="24.7.6">
  <diagram name="PÃ¡gina-1" id="2oczairl6t3XpsDHfTYD">
    <mxGraphModel dx="954" dy="560" grid="1" gridSize="10" guides="1" tooltips="1" connect="1" arrows="1" fold="1" page="1" pageScale="1" pageWidth="827" pageHeight="1169" math="0" shadow="0">
      <root>
        <mxCell id="0" />
        <mxCell id="1" parent="0" />
        <mxCell id="p-Hp8nUAtIgtTTo5FzGc-4" value="" style="edgeStyle=orthogonalEdgeStyle;rounded=0;orthogonalLoop=1;jettySize=auto;html=1;" edge="1" parent="1" source="p-Hp8nUAtIgtTTo5FzGc-2" target="p-Hp8nUAtIgtTTo5FzGc-3">
          <mxGeometry relative="1" as="geometry" />
        </mxCell>
        <mxCell id="p-Hp8nUAtIgtTTo5FzGc-2" value="Inicio" style="ellipse;whiteSpace=wrap;html=1;aspect=fixed;" vertex="1" parent="1">
          <mxGeometry x="355" y="260" width="80" height="80" as="geometry" />
        </mxCell>
        <mxCell id="p-Hp8nUAtIgtTTo5FzGc-6" value="" style="edgeStyle=orthogonalEdgeStyle;rounded=0;orthogonalLoop=1;jettySize=auto;html=1;" edge="1" parent="1" source="p-Hp8nUAtIgtTTo5FzGc-3" target="p-Hp8nUAtIgtTTo5FzGc-5">
          <mxGeometry relative="1" as="geometry" />
        </mxCell>
        <mxCell id="p-Hp8nUAtIgtTTo5FzGc-3" value="&lt;div&gt;&amp;nbsp;Definir tipo_cambio_eur_a_mxn = 23.70&lt;/div&gt;&lt;div&gt;&amp;nbsp; Definir tipo_cambio_usd_a_mxn = 20.75&lt;/div&gt;" style="rounded=1;whiteSpace=wrap;html=1;fillColor=#dae8fc;strokeColor=#6c8ebf;" vertex="1" parent="1">
          <mxGeometry x="270" y="420" width="250" height="131" as="geometry" />
        </mxCell>
        <mxCell id="p-Hp8nUAtIgtTTo5FzGc-11" value="" style="edgeStyle=orthogonalEdgeStyle;rounded=0;orthogonalLoop=1;jettySize=auto;html=1;" edge="1" parent="1" source="p-Hp8nUAtIgtTTo5FzGc-5" target="p-Hp8nUAtIgtTTo5FzGc-8">
          <mxGeometry relative="1" as="geometry" />
        </mxCell>
        <mxCell id="p-Hp8nUAtIgtTTo5FzGc-5" value="&lt;div&gt;&amp;nbsp; &amp;nbsp; Mostrar mensaje: &quot;Ingrese la&amp;nbsp;&lt;/div&gt;&lt;div&gt;moneda origen para la conversion (EUR/USD): &quot;&lt;/div&gt;&lt;div&gt;&lt;br&gt;&lt;/div&gt;" style="shape=parallelogram;perimeter=parallelogramPerimeter;whiteSpace=wrap;html=1;fixedSize=1;fillColor=#fff2cc;strokeColor=#d6b656;" vertex="1" parent="1">
          <mxGeometry x="285" y="610" width="220" height="120" as="geometry" />
        </mxCell>
        <mxCell id="p-Hp8nUAtIgtTTo5FzGc-13" value="" style="edgeStyle=orthogonalEdgeStyle;rounded=0;orthogonalLoop=1;jettySize=auto;html=1;" edge="1" parent="1" source="p-Hp8nUAtIgtTTo5FzGc-7" target="p-Hp8nUAtIgtTTo5FzGc-9">
          <mxGeometry relative="1" as="geometry" />
        </mxCell>
        <mxCell id="p-Hp8nUAtIgtTTo5FzGc-22" value="" style="edgeStyle=orthogonalEdgeStyle;rounded=0;orthogonalLoop=1;jettySize=auto;html=1;" edge="1" parent="1" source="p-Hp8nUAtIgtTTo5FzGc-7" target="p-Hp8nUAtIgtTTo5FzGc-21">
          <mxGeometry relative="1" as="geometry" />
        </mxCell>
        <mxCell id="p-Hp8nUAtIgtTTo5FzGc-7" value="tipo_conversion == &quot;EUR&quot;" style="rhombus;whiteSpace=wrap;html=1;fillColor=#d5e8d4;strokeColor=#82b366;" vertex="1" parent="1">
          <mxGeometry x="315" y="920" width="160" height="150" as="geometry" />
        </mxCell>
        <mxCell id="p-Hp8nUAtIgtTTo5FzGc-12" value="" style="edgeStyle=orthogonalEdgeStyle;rounded=0;orthogonalLoop=1;jettySize=auto;html=1;" edge="1" parent="1" source="p-Hp8nUAtIgtTTo5FzGc-8" target="p-Hp8nUAtIgtTTo5FzGc-7">
          <mxGeometry relative="1" as="geometry" />
        </mxCell>
        <mxCell id="p-Hp8nUAtIgtTTo5FzGc-8" value="&lt;div&gt;&amp;nbsp; &amp;nbsp; Mostrar mensaje: &quot;Ingrese el&amp;nbsp;&lt;/div&gt;&lt;div&gt;monto a convertir&quot;&lt;/div&gt;" style="shape=parallelogram;perimeter=parallelogramPerimeter;whiteSpace=wrap;html=1;fixedSize=1;fillColor=#fff2cc;strokeColor=#d6b656;" vertex="1" parent="1">
          <mxGeometry x="290" y="770" width="210" height="110" as="geometry" />
        </mxCell>
        <mxCell id="p-Hp8nUAtIgtTTo5FzGc-14" value="" style="edgeStyle=orthogonalEdgeStyle;rounded=0;orthogonalLoop=1;jettySize=auto;html=1;" edge="1" parent="1" source="p-Hp8nUAtIgtTTo5FzGc-9" target="p-Hp8nUAtIgtTTo5FzGc-10">
          <mxGeometry relative="1" as="geometry" />
        </mxCell>
        <mxCell id="p-Hp8nUAtIgtTTo5FzGc-9" value="Calcular resultado = monto_a_convertir * tipo_cambio_eur_a_mxn" style="rounded=1;whiteSpace=wrap;html=1;fillColor=#dae8fc;strokeColor=#6c8ebf;" vertex="1" parent="1">
          <mxGeometry x="530" y="950" width="160" height="90" as="geometry" />
        </mxCell>
        <mxCell id="p-Hp8nUAtIgtTTo5FzGc-32" style="edgeStyle=orthogonalEdgeStyle;rounded=0;orthogonalLoop=1;jettySize=auto;html=1;entryX=1;entryY=0.5;entryDx=0;entryDy=0;" edge="1" parent="1" source="p-Hp8nUAtIgtTTo5FzGc-10" target="p-Hp8nUAtIgtTTo5FzGc-29">
          <mxGeometry relative="1" as="geometry">
            <Array as="points">
              <mxPoint x="1060" y="995" />
              <mxPoint x="1060" y="1550" />
            </Array>
          </mxGeometry>
        </mxCell>
        <mxCell id="p-Hp8nUAtIgtTTo5FzGc-10" value="&lt;div&gt;&amp;nbsp; &amp;nbsp;&amp;nbsp;Mostrar &quot;El resultado de la conversion de EUR a MXN es: &quot;, resultado&lt;/div&gt;" style="shape=parallelogram;perimeter=parallelogramPerimeter;whiteSpace=wrap;html=1;fixedSize=1;fillColor=#fff2cc;strokeColor=#d6b656;" vertex="1" parent="1">
          <mxGeometry x="780" y="940" width="210" height="110" as="geometry" />
        </mxCell>
        <mxCell id="p-Hp8nUAtIgtTTo5FzGc-15" value="SI" style="text;html=1;align=center;verticalAlign=middle;resizable=0;points=[];autosize=1;strokeColor=none;fillColor=none;" vertex="1" parent="1">
          <mxGeometry x="480" y="970" width="30" height="30" as="geometry" />
        </mxCell>
        <mxCell id="p-Hp8nUAtIgtTTo5FzGc-16" value="" style="edgeStyle=orthogonalEdgeStyle;rounded=0;orthogonalLoop=1;jettySize=auto;html=1;" edge="1" parent="1" target="p-Hp8nUAtIgtTTo5FzGc-18">
          <mxGeometry relative="1" as="geometry">
            <mxPoint x="480" y="1195" as="sourcePoint" />
          </mxGeometry>
        </mxCell>
        <mxCell id="p-Hp8nUAtIgtTTo5FzGc-17" value="" style="edgeStyle=orthogonalEdgeStyle;rounded=0;orthogonalLoop=1;jettySize=auto;html=1;" edge="1" parent="1" source="p-Hp8nUAtIgtTTo5FzGc-18">
          <mxGeometry relative="1" as="geometry">
            <mxPoint x="785" y="1195" as="targetPoint" />
          </mxGeometry>
        </mxCell>
        <mxCell id="p-Hp8nUAtIgtTTo5FzGc-18" value="Calcular resultado = monto_a_convertir * tipo_cambio_usd_a_mxn" style="rounded=1;whiteSpace=wrap;html=1;fillColor=#dae8fc;strokeColor=#6c8ebf;" vertex="1" parent="1">
          <mxGeometry x="535" y="1150" width="160" height="90" as="geometry" />
        </mxCell>
        <mxCell id="p-Hp8nUAtIgtTTo5FzGc-33" style="edgeStyle=orthogonalEdgeStyle;rounded=0;orthogonalLoop=1;jettySize=auto;html=1;endArrow=none;endFill=0;" edge="1" parent="1" source="p-Hp8nUAtIgtTTo5FzGc-19">
          <mxGeometry relative="1" as="geometry">
            <mxPoint x="885" y="1550" as="targetPoint" />
          </mxGeometry>
        </mxCell>
        <mxCell id="p-Hp8nUAtIgtTTo5FzGc-19" value="&lt;div&gt;&amp;nbsp; &amp;nbsp;&amp;nbsp;Mostrar &quot;El resultado de la conversion de USD a MXN es: &quot;, resultado&lt;/div&gt;" style="shape=parallelogram;perimeter=parallelogramPerimeter;whiteSpace=wrap;html=1;fixedSize=1;fillColor=#fff2cc;strokeColor=#d6b656;" vertex="1" parent="1">
          <mxGeometry x="780" y="1140" width="210" height="110" as="geometry" />
        </mxCell>
        <mxCell id="p-Hp8nUAtIgtTTo5FzGc-20" value="SI" style="text;html=1;align=center;verticalAlign=middle;resizable=0;points=[];autosize=1;strokeColor=none;fillColor=none;" vertex="1" parent="1">
          <mxGeometry x="485" y="1170" width="30" height="30" as="geometry" />
        </mxCell>
        <mxCell id="p-Hp8nUAtIgtTTo5FzGc-25" value="" style="edgeStyle=orthogonalEdgeStyle;rounded=0;orthogonalLoop=1;jettySize=auto;html=1;" edge="1" parent="1" source="p-Hp8nUAtIgtTTo5FzGc-21" target="p-Hp8nUAtIgtTTo5FzGc-24">
          <mxGeometry relative="1" as="geometry" />
        </mxCell>
        <mxCell id="p-Hp8nUAtIgtTTo5FzGc-21" value="tipo_conversion == &quot;USD&quot;" style="rhombus;whiteSpace=wrap;html=1;fillColor=#d5e8d4;strokeColor=#82b366;" vertex="1" parent="1">
          <mxGeometry x="315" y="1120" width="160" height="150" as="geometry" />
        </mxCell>
        <mxCell id="p-Hp8nUAtIgtTTo5FzGc-23" value="NO" style="text;html=1;align=center;verticalAlign=middle;resizable=0;points=[];autosize=1;strokeColor=none;fillColor=none;" vertex="1" parent="1">
          <mxGeometry x="410" y="1078" width="40" height="30" as="geometry" />
        </mxCell>
        <mxCell id="p-Hp8nUAtIgtTTo5FzGc-31" value="" style="edgeStyle=orthogonalEdgeStyle;rounded=0;orthogonalLoop=1;jettySize=auto;html=1;" edge="1" parent="1" source="p-Hp8nUAtIgtTTo5FzGc-24" target="p-Hp8nUAtIgtTTo5FzGc-29">
          <mxGeometry relative="1" as="geometry" />
        </mxCell>
        <mxCell id="p-Hp8nUAtIgtTTo5FzGc-24" value="Mostrar: &quot;No esta disponible&amp;nbsp;&lt;div&gt;este tipo de conversion actualmente&quot;&lt;/div&gt;" style="shape=parallelogram;perimeter=parallelogramPerimeter;whiteSpace=wrap;html=1;fixedSize=1;fillColor=#fff2cc;strokeColor=#d6b656;" vertex="1" parent="1">
          <mxGeometry x="297.5" y="1320" width="195" height="120" as="geometry" />
        </mxCell>
        <mxCell id="p-Hp8nUAtIgtTTo5FzGc-26" value="NO" style="text;html=1;align=center;verticalAlign=middle;resizable=0;points=[];autosize=1;strokeColor=none;fillColor=none;" vertex="1" parent="1">
          <mxGeometry x="400" y="1278" width="40" height="30" as="geometry" />
        </mxCell>
        <mxCell id="p-Hp8nUAtIgtTTo5FzGc-29" value="FIN" style="ellipse;whiteSpace=wrap;html=1;aspect=fixed;" vertex="1" parent="1">
          <mxGeometry x="345" y="1500" width="100" height="100" as="geometry" />
        </mxCell>
      </root>
    </mxGraphModel>
  </diagram>
</mxfile>
